<svg xmlns="http://www.w3.org/2000/svg" viewBox="0 0 24 24" fill="#F58634">
    <path d="M12 2C6.4889971 2 2 6.4889971 2 12C2 17.511003 6.4889971 22 12 22C17.511003 22 22 17.511003 22 12C22 6.4889971 17.511003 2 12 2 z M 12 4C16.430123 4 20 7.5698774 20 12C20 16.014467 17.065322 19.313017 13.21875 19.898438L13.21875 14.384766L15.546875 14.384766L15.912109 12.019531L13.21875 12.019531L13.21875 10.726562C13.21875 9.7435625 13.538984 8.8710938 14.458984 8.8710938L15.935547 8.8710938L15.935547 6.8066406C15.675547 6.7716406 15.126844 6.6953125 14.089844 6.6953125C11.923844 6.6953125 10.654297 7.8393125 10.654297 10.445312L10.654297 12.019531L8.4277344 12.019531L8.4277344 14.384766L10.654297 14.384766L10.654297 19.878906C6.8702905 19.240845 4 15.970237 4 12C4 7.5698774 7.5698774 4 12 4 z"
          fill="#76a713"/>
</svg>