<svg id="Layer_1" data-name="Layer 1" xmlns="http://www.w3.org/2000/svg" xmlns:xlink="http://www.w3.org/1999/xlink" viewBox="0 0 36 36"><defs><style>.cls-1{fill:none;}.cls-2{clip-path:url(#clip-path);}.cls-3{fill:#1c9957;}.cls-4{fill:#3e7bf1;}.cls-5{fill:#cbccc9;}.cls-6{fill:#efefef;}.cls-7{fill:#ffd73d;}.cls-8{fill:#d73f35;}.cls-9{fill:#752622;}.cls-10{fill:#fff;}</style><clipPath id="clip-path"><circle class="cls-1" cx="18" cy="18" r="18"/></clipPath></defs><title>icon-map</title><g class="cls-2"><path class="cls-3" d="M36,33V3a3,3,0,0,0-3-3H3A3,3,0,0,0,0,3V33a3,3,0,0,0,3,3H33A3,3,0,0,0,36,33Z"/><path class="cls-4" d="M3,36H33c1.66,0-15-16-15-16S1.34,36,3,36Z"/><path class="cls-5" d="M36,33V3c0-1.66-16,15-16,15S36,34.66,36,33Z"/><path class="cls-6" d="M33,36a3,3,0,0,0,3-3v-.24L20.25,17,17,20.25,32.76,36Z"/><path class="cls-7" d="M36,3a3,3,0,0,0-3-3h-.24L0,32.76V33a3,3,0,0,0,3,3h.24L36,3.24Z"/><path class="cls-8" d="M30-4A10,10,0,0,0,20,6c0,6.81,7.67,9.3,9.33,19.85.11.68.12,1.15.67,1.15s.56-.47.67-1.15C32.33,15.3,40,12.81,40,6A10,10,0,0,0,30-4Z"/><path class="cls-9" d="M30,2.5A3.5,3.5,0,1,0,33.5,6,3.5,3.5,0,0,0,30,2.5Z"/><path class="cls-10" d="M10.49,8.53v2.1h3a3,3,0,0,1-3,2.19A3.32,3.32,0,1,1,12.65,7L14.2,5.43A5.5,5.5,0,1,0,10.49,15c4.81,0,5.64-4.32,5.19-6.46Z"/></g></svg>