<?xml version="1.0" encoding="utf-8"?>
<!-- Generator: Adobe Illustrator 24.0.0, SVG Export Plug-In . SVG Version: 6.00 Build 0)  -->
<svg version="1.1" id="Layer_1" xmlns="http://www.w3.org/2000/svg" x="0px" y="0px"
     viewBox="0 0 36 36" style="enable-background:new 0 0 36 36;" xml:space="preserve">
<style type="text/css">
	.st0{display:none;}
	.st1{display:inline;fill:none;stroke:#76a713;stroke-width:2;stroke-miterlimit:10;}
	.st2{display:inline;fill-rule:evenodd;clip-rule:evenodd;fill:#76a713;stroke:#76a713;stroke-miterlimit:10;}
	.st3{fill:none;stroke:#76a713;stroke-width:3;stroke-miterlimit:10;}
	.st4{fill-rule:evenodd;clip-rule:evenodd;fill:#76a713;}
</style>
    <g class="st0">
	<circle class="st1" cx="18" cy="18" r="14.2"/>
        <path id="Combined-Shape_1_" class="st2" d="M18.4,16.5V16h1.2v5.7H19c-0.3,0-0.5-0.2-0.5-0.5l0,0c-1.3,1-3.2,0.7-4.1-0.6
		s-0.7-3.2,0.6-4.1c0.5-0.4,1.1-0.6,1.8-0.6C17.3,15.9,17.9,16.1,18.4,16.5L18.4,16.5z M13.5,14.2v0.2c0,0.3-0.1,0.7-0.3,0.9l0,0.1
		c0,0.1-0.2,0.2-0.2,0.2l-3.9,4.8h4.4v0.7c0,0.3-0.2,0.5-0.5,0.5H7.3v-0.3c0-0.3,0.1-0.5,0.2-0.7l4.1-5.1H7.4v-1.3L13.5,14.2z
		 M21.1,21.7c-0.2,0-0.4-0.2-0.4-0.4v-7H22v7.5H21.1z M25.8,15.9c1.6,0,3,1.3,3,3c0,1.6-1.3,3-3,3c-1.6,0-3-1.3-3-3
		C22.8,17.2,24.1,15.9,25.8,15.9L25.8,15.9z M16.7,20.6c1,0,1.7-0.8,1.7-1.7c0-1-0.8-1.7-1.7-1.7S15,17.9,15,18.8c0,0,0,0,0,0
		C15,19.8,15.8,20.6,16.7,20.6z M25.8,20.6c1,0,1.7-0.8,1.7-1.7s-0.8-1.7-1.7-1.7c-1,0-1.7,0.8-1.7,1.7S24.8,20.6,25.8,20.6
		L25.8,20.6z"/>
</g>
    <title>icon-zalo</title>
    <g>
	<circle class="st3" cx="18" cy="18" r="13.4"/>
        <path id="Combined-Shape_2_" class="st4" d="M18.4,16.7v-0.4h1v4.8h-0.6c-0.2,0-0.4-0.2-0.4-0.4l0,0c-1.1,0.8-2.7,0.6-3.5-0.5
		c-0.8-1.1-0.6-2.7,0.5-3.5c0.4-0.3,1-0.5,1.5-0.5C17.4,16.2,17.9,16.4,18.4,16.7L18.4,16.7z M14.1,14.8v0.2c0,0.3-0.1,0.6-0.2,0.8
		l0,0.1c0,0.1-0.2,0.1-0.2,0.2l-3.3,4.1h3.8v0.6c0,0.2-0.2,0.4-0.4,0.4H8.8v-0.3c0-0.2,0.1-0.4,0.2-0.6l3.5-4.3H9v-1.1L14.1,14.8z
		 M20.6,21.2c-0.2,0-0.3-0.2-0.4-0.4v-6h1.1v6.4H20.6z M24.6,16.2c1.4,0,2.5,1.1,2.5,2.5c0,1.4-1.1,2.5-2.5,2.5
		c-1.4,0-2.5-1.1-2.5-2.5C22.1,17.3,23.2,16.2,24.6,16.2L24.6,16.2z M16.9,20.2c0.8,0,1.5-0.7,1.5-1.5c0-0.8-0.7-1.5-1.5-1.5
		s-1.5,0.7-1.5,1.5c0,0,0,0,0,0C15.4,19.5,16.1,20.2,16.9,20.2z M24.6,20.2c0.8,0,1.5-0.7,1.5-1.5s-0.7-1.5-1.5-1.5
		c-0.8,0-1.5,0.7-1.5,1.5S23.8,20.2,24.6,20.2L24.6,20.2z"/>
</g>
</svg>
